<svg xmlns="http://www.w3.org/2000/svg" viewBox="0 0 512 512" role="img" aria-label="one3seven"><rect width="512" height="512" rx="112" fill="#F1F3EF"/><circle cx="256.00" cy="256.00" r="11.00" fill="#42574e"/><circle cx="241.38" cy="269.39" r="10.58" fill="#495e55"/><circle cx="258.45" cy="228.08" r="10.40" fill="#4c6157"/><circle cx="276.89" cy="283.25" r="10.27" fill="#4e635a"/><circle cx="216.96" cy="249.10" r="10.15" fill="#50655b"/><circle cx="293.40" cy="232.21" r="10.05" fill="#52675d"/><circle cx="243.40" cy="302.89" r="9.96" fill="#54695e"/><circle cx="231.83" cy="209.46" r="9.88" fill="#556a60"/><circle cx="308.66" cy="275.23" r="9.80" fill="#566b61"/><circle cx="201.04" cy="278.69" r="9.73" fill="#586d62"/><circle cx="282.57" cy="199.23" r="9.66" fill="#596e63"/><circle cx="275.67" cy="318.73" r="9.60" fill="#5a6f64"/><circle cx="196.59" cy="221.57" r="9.54" fill="#5b7065"/><circle cx="325.80" cy="240.65" r="9.48" fill="#5c7166"/><circle cx="213.35" cy="316.67" r="9.42" fill="#5d7267"/><circle cx="246.13" cy="179.87" r="9.36" fill="#5e7368"/><circle cx="316.62" cy="307.09" r="9.31" fill="#5f7469"/><circle cx="174.35" cy="259.38" r="9.26" fill="#607569"/><circle cx="315.61" cy="196.68" r="9.21" fill="#60756a"/><circle cx="252.01" cy="342.31" r="9.16" fill="#61766b"/><circle cx="199.21" cy="187.94" r="9.11" fill="#62776c"/><circle cx="346.02" cy="268.11" r="9.06" fill="#63786d"/><circle cx="179.69" cy="309.10" r="9.02" fill="#64796d"/><circle cx="276.86" cy="163.26" r="8.97" fill="#64796e"/><circle cx="304.28" cy="340.25" r="8.93" fill="#657a6f"/><circle cx="161.58" cy="225.88" r="8.89" fill="#667b6f"/><circle cx="347.75" cy="213.61" r="8.84" fill="#677c70"/><circle cx="216.24" cy="351.01" r="8.80" fill="#677c71"/><circle cx="220.50" cy="157.31" r="8.76" fill="#687d71"/><circle cx="350.49" cy="305.66" r="8.72" fill="#697e72"/><circle cx="151.02" cy="283.67" r="8.68" fill="#697e73"/><circle cx="315.69" cy="163.17" r="8.65" fill="#6a7f73"/><circle cx="274.99" cy="366.51" r="8.61" fill="#6b8074"/><circle cx="165.98" cy="186.28" r="8.57" fill="#6b8074"/><circle cx="371.18" cy="246.46" r="8.53" fill="#6c8175"/><circle cx="176.37" cy="342.08" r="8.50" fill="#6c8175"/><circle cx="256.58" cy="137.07" r="8.46" fill="#6d8276"/><circle cx="337.01" cy="345.30" r="8.43" fill="#6e8377"/><circle cx="134.34" cy="244.72" r="8.39" fill="#6e8377"/><circle cx="354.60" cy="181.17" r="8.36" fill="#6f8478"/><circle cx="233.56" cy="379.34" r="8.33" fill="#6f8478"/><circle cx="188.40" cy="148.58" r="8.29" fill="#708579"/><circle cx="379.89" cy="289.95" r="8.26" fill="#718679"/><circle cx="140.36" cy="315.34" r="8.23" fill="#71867a"/><circle cx="301.70" cy="132.72" r="8.19" fill="#72877a"/><circle cx="306.13" cy="379.15" r="8.16" fill="#72877b"/><circle cx="134.52" cy="198.43" r="8.13" fill="#73887b"/><circle cx="385.85" cy="215.96" r="8.10" fill="#73887c"/><circle cx="186.57" cy="374.48" r="8.07" fill="#74897c"/><circle cx="226.87" cy="120.34" r="8.04" fill="#74897d"/><circle cx="370.26" cy="337.17" r="8.01" fill="#758a7d"/><circle cx="115.54" cy="273.51" r="7.98" fill="#758a7e"/><circle cx="348.64" cy="147.16" r="7.95" fill="#768b7e"/><circle cx="261.26" cy="400.20" r="7.92" fill="#768b7f"/><circle cx="153.76" cy="152.26" r="7.89" fill="#778c7f"/><circle cx="402.81" cy="263.51" r="7.86" fill="#778c7f"/><circle cx="141.65" cy="350.48" r="7.84" fill="#788d80"/><circle cx="276.68" cy="107.79" r="7.81" fill="#788d80"/><circle cx="341.61" cy="380.33" r="7.78" fill="#798e81"/><circle cx="107.63" cy="221.86" r="7.75" fill="#798e81"/><circle cx="389.58" cy="180.32" r="7.72" fill="#7a8f82"/><circle cx="208.23" cy="403.25" r="7.70" fill="#7a8f82"/><circle cx="191.23" cy="114.00" r="7.67" fill="#7b9082"/><circle cx="400.83" cy="317.44" r="7.64" fill="#7b9083"/><circle cx="106.53" cy="308.94" r="7.62" fill="#7b9083"/><circle cx="331.03" cy="114.91" r="7.59" fill="#7c9184"/><circle cx="296.28" cy="411.91" r="7.56" fill="#7c9184"/><circle cx="119.96" cy="167.59" r="7.54" fill="#7d9285"/><circle cx="417.22" cy="229.10" r="7.51" fill="#7d9285"/><circle cx="154.55" cy="385.68" r="7.49" fill="#7e9385"/><circle cx="243.11" cy="90.67" r="7.46" fill="#7e9386"/><circle cx="378.05" cy="370.01" r="7.44" fill="#7e9386"/><circle cx="87.82" cy="254.36" r="7.41" fill="#7f9487"/><circle cx="381.98" cy="142.83" r="7.39" fill="#7f9487"/><circle cx="239.44" cy="425.70" r="7.36" fill="#809587"/><circle cx="152.89" cy="118.76" r="7.34" fill="#809588"/><circle cx="425.85" cy="287.76" r="7.31" fill="#819688"/><circle cx="108.34" cy="347.92" r="7.29" fill="#819688"/><circle cx="303.09" cy="87.40" r="7.26" fill="#819689"/><circle cx="335.67" cy="413.13" r="7.24" fill="#829789"/><circle cx="90.07" cy="193.56" r="7.22" fill="#82978a"/><circle cx="421.55" cy="189.55" r="7.19" fill="#83988a"/><circle cx="178.34" cy="417.82" r="7.17" fill="#83988a"/><circle cx="203.64" cy="83.18" r="7.15" fill="#83988b"/><circle cx="412.28" cy="348.62" r="7.12" fill="#84998b"/><circle cx="77.15" cy="293.49" r="7.10" fill="#84998b"/><circle cx="363.18" cy="106.67" r="7.08" fill="#859a8c"/><circle cx="277.97" cy="439.57" r="7.06" fill="#859a8c"/><circle cx="115.00" cy="134.79" r="7.03" fill="#859a8d"/><circle cx="442.90" cy="250.10" r="7.01" fill="#869b8d"/><circle cx="121.42" cy="387.33" r="6.99" fill="#869b8d"/><circle cx="266.58" cy="67.21" r="6.97" fill="#869b8e"/><circle cx="376.38" cy="403.15" r="6.94" fill="#879c8e"/><circle cx="66.82" cy="228.66" r="6.92" fill="#879c8e"/><circle cx="414.81" cy="147.79" r="6.90" fill="#889d8f"/><circle cx="211.76" cy="444.06" r="6.88" fill="#889d8f"/><circle cx="161.09" cy="86.56" r="6.86" fill="#889d8f"/><circle cx="441.39" cy="317.14" r="6.83" fill="#899e90"/><circle cx="77.08" cy="336.56" r="6.81" fill="#899e90"/><circle cx="333.91" cy="74.82" r="6.79" fill="#899e90"/><circle cx="321.26" cy="443.16" r="6.77" fill="#8a9f91"/><circle cx="80.58" cy="161.61" r="6.75" fill="#8a9f91"/><circle cx="450.06" cy="206.87" r="6.73" fill="#8a9f91"/><circle cx="145.56" cy="424.13" r="6.71" fill="#8ba092"/><circle cx="223.71" cy="56.46" r="6.69" fill="#8ba092"/><circle cx="415.36" cy="381.92" r="6.67" fill="#8ca192"/><circle cx="52.47" cy="270.86" r="6.65" fill="#8ca193"/><circle cx="396.69" cy="106.86" r="6.63" fill="#8ca193"/><circle cx="252.99" cy="461.96" r="6.61" fill="#8da293"/><circle cx="118.46" cy="101.38" r="6.58" fill="#8da294"/><circle cx="462.80" cy="277.20" r="6.56" fill="#8da294"/><circle cx="88.43" cy="380.62" r="6.54" fill="#8ea394"/><circle cx="295.56" cy="50.00" r="6.52" fill="#8ea395"/><circle cx="366.48" cy="435.42" r="6.50" fill="#8ea395"/><circle cx="52.45" cy="198.07" r="6.48" fill="#8fa495"/><circle cx="446.05" cy="160.80" r="6.46" fill="#8fa495"/><circle cx="179.84" cy="455.43" r="6.45" fill="#8fa496"/><circle cx="177.10" cy="56.65" r="6.43" fill="#90a596"/><circle cx="449.66" cy="350.10" r="6.41" fill="#90a596"/><circle cx="48.76" cy="317.69" r="6.39" fill="#90a597"/><circle cx="367.61" cy="69.75" r="6.37" fill="#91a697"/><circle cx="299.69" cy="469.61" r="6.35" fill="#91a697"/><circle cx="78.76" cy="127.48" r="6.33" fill="#91a698"/><circle cx="474.39" cy="230.94" r="6.31" fill="#92a798"/><circle cx="111.30" cy="422.67" r="6.29" fill="#92a798"/><circle cx="250.08" cy="34.47" r="6.27" fill="#92a799"/><circle cx="410.62" cy="415.99" r="6.25" fill="#93a899"/><circle cx="33.04" cy="242.42" r="6.23" fill="#93a899"/><circle cx="430.26" cy="114.86" r="6.22" fill="#93a899"/><circle cx="222.72" cy="478.65" r="6.20" fill="#94a99a"/><circle cx="129.66" cy="68.62" r="6.18" fill="#94a99a"/><circle cx="476.58" cy="309.03" r="6.16" fill="#94a99a"/><circle cx="56.78" cy="366.32" r="6.14" fill="#94a99b"/><circle cx="328.66" cy="39.27" r="6.12" fill="#95aa9b"/><circle cx="349.18" cy="465.67" r="6.10" fill="#95aa9b"/><circle cx="44.88" cy="163.99" r="6.09" fill="#95aa9b"/><circle cx="474.63" cy="180.96" r="6.07" fill="#96ab9c"/></svg>