<svg xmlns="http://www.w3.org/2000/svg" width="512" height="512" viewBox="0 0 512 512"><rect width="512" height="512" fill="#5B21B6"/><circle cx="256" cy="256" r="13.31" fill="#ffffff"/><circle cx="245.2" cy="265.89" r="12.80" fill="#faf8ff"/><circle cx="257.81" cy="235.37" r="12.59" fill="#f7f6ff"/><circle cx="271.43" cy="276.13" r="12.43" fill="#f6f3ff"/><circle cx="227.16" cy="250.9" r="12.30" fill="#f4f2ff"/><circle cx="283.63" cy="238.42" r="12.18" fill="#f3f0ff"/><circle cx="246.69" cy="290.64" r="12.07" fill="#f2efff"/><circle cx="238.14" cy="221.61" r="11.97" fill="#f1edff"/><circle cx="294.91" cy="270.21" r="11.88" fill="#f0ecff"/><circle cx="215.39" cy="272.76" r="11.79" fill="#efebff"/><circle cx="275.63" cy="214.05" r="11.71" fill="#eeeaff"/><circle cx="270.54" cy="302.35" r="11.63" fill="#ede9ff"/><circle cx="212.11" cy="230.56" r="11.55" fill="#ede8ff"/><circle cx="307.57" cy="244.66" r="11.48" fill="#ece7ff"/><circle cx="224.48" cy="300.83" r="11.41" fill="#ebe6ff"/><circle cx="248.71" cy="199.75" r="11.35" fill="#eae5ff"/><circle cx="300.79" cy="293.75" r="11.28" fill="#eae4ff"/><circle cx="195.67" cy="258.49" r="11.22" fill="#e9e3ff"/><circle cx="300.04" cy="212.17" r="11.16" fill="#e8e3ff"/><circle cx="253.05" cy="319.77" r="11.10" fill="#e8e2ff"/><circle cx="214.04" cy="205.71" r="11.04" fill="#e7e1ff"/><circle cx="322.51" cy="264.95" r="10.99" fill="#e7e0ff"/><circle cx="199.61" cy="295.23" r="10.93" fill="#e6e0ff"/><circle cx="271.42" cy="187.48" r="10.88" fill="#e5dfff"/><circle cx="291.67" cy="318.25" r="10.82" fill="#e5deff"/><circle cx="186.24" cy="233.74" r="10.77" fill="#e4deff"/><circle cx="323.79" cy="224.68" r="10.72" fill="#e4ddff"/><circle cx="226.62" cy="326.2" r="10.67" fill="#e3dcff"/><circle cx="229.77" cy="183.08" r="10.63" fill="#e3dcff"/><circle cx="325.81" cy="292.69" r="10.58" fill="#e2dbff"/><circle cx="178.43" cy="276.45" r="10.53" fill="#e2daff"/><circle cx="300.1" cy="187.41" r="10.49" fill="#e1daff"/><circle cx="270.03" cy="337.65" r="10.44" fill="#e1d9ff"/><circle cx="189.48" cy="204.49" r="10.40" fill="#e0d9ff"/><circle cx="341.1" cy="248.95" r="10.35" fill="#e0d8ff"/><circle cx="197.16" cy="319.6" r="10.31" fill="#dfd8ff"/><circle cx="256.43" cy="168.13" r="10.27" fill="#dfd7ff"/><circle cx="315.85" cy="321.98" r="10.22" fill="#dfd6ff"/><circle cx="166.11" cy="247.67" r="10.18" fill="#ded6ff"/><circle cx="328.85" cy="200.71" r="10.14" fill="#ded5ff"/><circle cx="239.42" cy="347.13" r="10.10" fill="#ddd5ff"/><circle cx="206.05" cy="176.63" r="10.06" fill="#ddd4ff"/><circle cx="347.54" cy="281.09" r="10.02" fill="#dcd4ff"/><circle cx="170.56" cy="299.85" r="9.98" fill="#dcd3ff"/><circle cx="289.77" cy="164.91" r="9.94" fill="#dcd3ff"/><circle cx="293.04" cy="346.99" r="9.91" fill="#dbd2ff"/><circle cx="166.24" cy="213.46" r="9.87" fill="#dbd2ff"/><circle cx="351.95" cy="226.42" r="9.83" fill="#dad1ff"/><circle cx="204.7" cy="343.54" r="9.79" fill="#dad1ff"/><circle cx="234.48" cy="155.77" r="9.76" fill="#dad0ff"/><circle cx="340.42" cy="315.97" r="9.72" fill="#d9d0ff"/><circle cx="152.22" cy="268.93" r="9.69" fill="#d9cfff"/><circle cx="324.45" cy="175.58" r="9.65" fill="#d8cfff"/><circle cx="259.89" cy="362.55" r="9.62" fill="#d8ceff"/><circle cx="180.46" cy="179.35" r="9.58" fill="#d8ceff"/><circle cx="364.47" cy="261.55" r="9.55" fill="#d7ceff"/><circle cx="171.51" cy="325.81" r="9.51" fill="#d7cdff"/><circle cx="271.28" cy="146.49" r="9.48" fill="#d7cdff"/><circle cx="319.25" cy="347.86" r="9.45" fill="#d6ccff"/><circle cx="146.37" cy="230.78" r="9.41" fill="#d6ccff"/><circle cx="354.7" cy="200.08" r="9.38" fill="#d6cbff"/><circle cx="220.7" cy="364.8" r="9.35" fill="#d5cbff"/><circle cx="208.14" cy="151.08" r="9.31" fill="#d5caff"/><circle cx="363.01" cy="301.4" r="9.28" fill="#d5caff"/><circle cx="145.56" cy="295.12" r="9.25" fill="#d4caff"/><circle cx="311.44" cy="151.75" r="9.22" fill="#d4c9ff"/><circle cx="285.76" cy="371.19" r="9.19" fill="#d4c9ff"/><circle cx="155.49" cy="190.68" r="9.16" fill="#d3c8ff"/><circle cx="375.12" cy="236.13" r="9.13" fill="#d3c8ff"/><circle cx="181.04" cy="351.82" r="9.09" fill="#d3c8ff"/><circle cx="246.48" cy="133.84" r="9.06" fill="#d2c7ff"/><circle cx="346.18" cy="340.24" r="9.03" fill="#d2c7ff"/><circle cx="131.74" cy="254.79" r="9.00" fill="#d2c6ff"/><circle cx="349.09" cy="172.38" r="8.97" fill="#d1c6ff"/><circle cx="243.76" cy="381.39" r="8.94" fill="#d1c6ff"/><circle cx="179.82" cy="154.6" r="8.92" fill="#d1c5ff"/><circle cx="381.5" cy="279.46" r="8.89" fill="#d0c5ff"/><circle cx="146.9" cy="323.91" r="8.86" fill="#d0c4ff"/><circle cx="290.8" cy="131.43" r="8.83" fill="#d0c4ff"/><circle cx="314.87" cy="372.1" r="8.80" fill="#d0c4ff"/><circle cx="133.4" cy="209.87" r="8.77" fill="#cfc3ff"/><circle cx="378.32" cy="206.9" r="8.74" fill="#cfc3ff"/><circle cx="198.62" cy="375.56" r="8.71" fill="#cfc3ff"/><circle cx="217.31" cy="128.31" r="8.69" fill="#cec2ff"/><circle cx="371.47" cy="324.43" r="8.66" fill="#cec2ff"/><circle cx="123.85" cy="283.7" r="8.63" fill="#cec1ff"/><circle cx="335.19" cy="145.66" r="8.60" fill="#cdc1ff"/><circle cx="272.23" cy="391.63" r="8.58" fill="#cdc1ff"/><circle cx="151.82" cy="166.44" r="8.55" fill="#cdc0ff"/><circle cx="394.09" cy="251.64" r="8.52" fill="#cdc0ff"/><circle cx="156.57" cy="353.04" r="8.50" fill="#ccc0ff"/><circle cx="263.81" cy="116.51" r="8.47" fill="#ccbfff"/><circle cx="344.94" cy="364.72" r="8.44" fill="#ccbfff"/><circle cx="116.22" cy="235.8" r="8.42" fill="#ccbfff"/><circle cx="373.34" cy="176.05" r="8.39" fill="#cbbeff"/><circle cx="223.31" cy="394.95" r="8.36" fill="#cbbeff"/><circle cx="185.88" cy="130.81" r="8.34" fill="#cbbeff"/><circle cx="392.98" cy="301.18" r="8.31" fill="#cabdff"/><circle cx="123.8" cy="315.52" r="8.29" fill="#cabdff"/><circle cx="313.56" cy="122.13" r="8.26" fill="#cabdff"/><circle cx="304.22" cy="394.29" r="8.24" fill="#cabcff"/><circle cx="126.39" cy="186.26" r="8.21" fill="#c9bcff"/><circle cx="399.38" cy="219.7" r="8.18" fill="#c9bcff"/><circle cx="174.4" cy="380.23" r="8.16" fill="#c9bbff"/><circle cx="232.14" cy="108.57" r="8.13" fill="#c9bbff"/><circle cx="373.75" cy="349.04" r="8.11" fill="#c8bbff"/><circle cx="105.62" cy="266.98" r="8.08" fill="#c8baff"/><circle cx="359.95" cy="145.8" r="8.06" fill="#c8baff"/><circle cx="253.77" cy="408.18" r="8.04" fill="#c8baff"/><circle cx="154.38" cy="141.76" r="8.01" fill="#c7b9ff"/></svg>