<svg xmlns="http://www.w3.org/2000/svg" viewBox="0 0 64 64" role="img" aria-label="one3seven"><circle cx="32.00" cy="32.00" r="5.40" fill="#5b21b6"/><circle cx="28.59" cy="35.13" r="4.98" fill="#5b21b6"/><circle cx="32.57" cy="25.48" r="4.81" fill="#5b21b6"/><circle cx="36.88" cy="38.36" r="4.68" fill="#5b21b6"/><circle cx="22.88" cy="30.39" r="4.57" fill="#5b21b6"/><circle cx="40.74" cy="26.44" r="4.47" fill="#5b21b6"/><circle cx="29.06" cy="42.95" r="4.38" fill="#5b21b6"/><circle cx="26.35" cy="21.13" r="4.30" fill="#5b21b6"/><circle cx="44.30" cy="36.49" r="4.22" fill="#5b21b6"/><circle cx="19.16" cy="37.30" r="4.15" fill="#5b21b6"/><circle cx="38.21" cy="18.74" r="4.08" fill="#5b21b6"/><circle cx="36.60" cy="46.65" r="4.02" fill="#5b21b6"/><circle cx="18.12" cy="23.96" r="3.96" fill="#5b21b6"/><circle cx="48.31" cy="28.42" r="3.90" fill="#5b21b6"/><circle cx="22.04" cy="46.17" r="3.84" fill="#5b21b6"/><circle cx="29.70" cy="14.22" r="3.79" fill="#5b21b6"/><circle cx="46.16" cy="43.94" r="3.73" fill="#5b21b6"/><circle cx="12.92" cy="32.79" r="3.68" fill="#5b21b6"/><circle cx="45.93" cy="18.14" r="3.63" fill="#5b21b6"/><circle cx="31.07" cy="52.16" r="3.58" fill="#5b21b6"/><circle cx="18.73" cy="16.10" r="3.54" fill="#5b21b6"/><circle cx="53.03" cy="34.83" r="3.49" fill="#5b21b6"/><circle cx="14.17" cy="44.40" r="3.45" fill="#5b21b6"/><circle cx="36.87" cy="10.33" r="3.40" fill="#5b21b6"/><circle cx="43.28" cy="51.68" r="3.36" fill="#5b21b6"/><circle cx="9.94" cy="24.96" r="3.32" fill="#5b21b6"/><circle cx="53.43" cy="22.10" r="3.28" fill="#5b21b6"/><circle cx="22.71" cy="54.20" r="3.23" fill="#5b21b6"/><circle cx="23.71" cy="8.94" r="3.19" fill="#5b21b6"/><circle cx="54.07" cy="43.60" r="3.16" fill="#5b21b6"/><circle cx="7.48" cy="38.46" r="3.12" fill="#5b21b6"/><circle cx="45.94" cy="10.31" r="3.08" fill="#5b21b6"/><circle cx="36.44" cy="57.82" r="3.04" fill="#5b21b6"/><circle cx="10.97" cy="15.71" r="3.01" fill="#5b21b6"/></svg>
