<svg xmlns="http://www.w3.org/2000/svg" viewBox="0 0 1128 191" width="1128" height="191">
<defs><radialGradient id="glow" cx="50%" cy="50%" r="50%"><stop offset="0%" stop-color="#5E7268" stop-opacity="0.30"/><stop offset="100%" stop-color="#5E7268" stop-opacity="0"/></radialGradient></defs>
<rect width="1128" height="191" fill="#1B2623"/>
<circle cx="120" cy="95" r="150" fill="url(#glow)"/>
<circle cx="120.00" cy="95.00" r="4.20" fill="#E7EDE8"/><circle cx="113.83" cy="100.65" r="3.97" fill="#C6D0C8"/><circle cx="121.03" cy="83.21" r="3.88" fill="#C6D0C8"/><circle cx="128.82" cy="106.50" r="3.81" fill="#C6D0C8"/><circle cx="103.52" cy="92.09" r="3.75" fill="#C6D0C8"/><circle cx="135.79" cy="84.96" r="3.69" fill="#C6D0C8"/><circle cx="114.68" cy="114.79" r="3.65" fill="#95AB9B"/><circle cx="109.80" cy="75.36" r="3.60" fill="#95AB9B"/><circle cx="142.23" cy="103.12" r="3.56" fill="#95AB9B"/><circle cx="96.80" cy="104.58" r="3.52" fill="#95AB9B"/><circle cx="131.21" cy="71.04" r="3.49" fill="#95AB9B"/><circle cx="128.30" cy="121.48" r="3.45" fill="#95AB9B"/><circle cx="94.92" cy="80.47" r="3.42" fill="#95AB9B"/><circle cx="149.46" cy="88.52" r="3.39" fill="#95AB9B"/><circle cx="102.00" cy="120.61" r="3.35" fill="#95AB9B"/><circle cx="115.84" cy="62.86" r="3.33" fill="#95AB9B"/><circle cx="145.59" cy="116.57" r="3.30" fill="#95AB9B"/><circle cx="85.53" cy="96.43" r="3.27" fill="#95AB9B"/><circle cx="145.16" cy="69.96" r="3.24" fill="#95AB9B"/><circle cx="118.32" cy="131.43" r="3.22" fill="#95AB9B"/><circle cx="96.03" cy="66.27" r="3.19" fill="#95AB9B"/><circle cx="158.00" cy="100.11" r="3.16" fill="#7C8B6F"/><circle cx="87.79" cy="117.41" r="3.14" fill="#7C8B6F"/><circle cx="128.81" cy="55.85" r="3.12" fill="#7C8B6F"/><circle cx="140.38" cy="130.56" r="3.09" fill="#7C8B6F"/><circle cx="80.15" cy="82.29" r="3.07" fill="#7C8B6F"/><circle cx="158.73" cy="77.11" r="3.05" fill="#7C8B6F"/><circle cx="103.22" cy="135.10" r="3.03" fill="#7C8B6F"/><circle cx="105.02" cy="53.34" r="3.00" fill="#7C8B6F"/><circle cx="159.88" cy="115.96" r="2.98" fill="#7C8B6F"/><circle cx="75.69" cy="106.68" r="2.96" fill="#7C8B6F"/><circle cx="145.19" cy="55.82" r="2.94" fill="#7C8B6F"/><circle cx="128.02" cy="141.64" r="2.92" fill="#7C8B6F"/><circle cx="82.00" cy="65.57" r="2.90" fill="#7C8B6F"/><circle cx="168.62" cy="90.97" r="2.88" fill="#7C8B6F"/><circle cx="86.39" cy="131.33" r="2.86" fill="#7C8B6F"/><circle cx="120.24" cy="44.80" r="2.84" fill="#7C8B6F"/><circle cx="154.19" cy="132.69" r="2.83" fill="#7C8B6F"/><circle cx="68.64" cy="90.24" r="2.81" fill="#7C8B6F"/><circle cx="161.62" cy="63.41" r="2.79" fill="#7C8B6F"/><circle cx="110.53" cy="147.06" r="2.77" fill="#7C8B6F"/><circle cx="91.47" cy="49.66" r="2.75" fill="#7C8B6F"/><circle cx="172.29" cy="109.33" r="2.74" fill="#7C8B6F"/><circle cx="71.19" cy="120.05" r="2.72" fill="#7C8B6F"/><circle cx="139.29" cy="42.96" r="2.70" fill="#7C8B6F"/><circle cx="141.16" cy="146.98" r="2.68" fill="#7C8B6F"/><circle cx="68.72" cy="70.70" r="2.67" fill="#7C8B6F"/><circle cx="174.81" cy="78.10" r="2.65" fill="#5E7268"/><circle cx="90.69" cy="145.01" r="2.63" fill="#5E7268"/><circle cx="107.70" cy="37.74" r="2.62" fill="#5E7268"/><circle cx="168.23" cy="129.26" r="2.60" fill="#5E7268"/><circle cx="60.71" cy="102.39" r="2.59" fill="#5E7268"/><circle cx="159.11" cy="49.06" r="2.57" fill="#5E7268"/><circle cx="122.22" cy="155.87" r="2.56" fill="#5E7268"/><circle cx="76.85" cy="51.21" r="2.54" fill="#5E7268"/><circle cx="181.97" cy="98.17" r="2.52" fill="#5E7268"/><circle cx="71.73" cy="134.88" r="2.51" fill="#5E7268"/><circle cx="128.73" cy="32.44" r="2.49" fill="#5E7268"/><circle cx="156.14" cy="147.48" r="2.48" fill="#5E7268"/><circle cx="57.37" cy="80.59" r="2.46" fill="#5E7268"/><circle cx="176.39" cy="63.05" r="2.45" fill="#5E7268"/><circle cx="99.84" cy="157.16" r="2.44" fill="#5E7268"/><circle cx="92.66" cy="35.06" r="2.42" fill="#5E7268"/><circle cx="181.13" cy="120.94" r="2.41" fill="#5E7268"/><circle cx="56.91" cy="117.35" r="2.39" fill="#5E7268"/><circle cx="151.67" cy="35.44" r="2.38" fill="#5E7268"/><circle cx="137.00" cy="160.81" r="2.36" fill="#5E7268"/><circle cx="62.58" cy="57.68" r="2.35" fill="#5E7268"/><circle cx="188.05" cy="83.65" r="2.34" fill="#5E7268"/><circle cx="77.18" cy="149.74" r="2.32" fill="#5E7268"/>
<text x="250" y="86" font-family="-apple-system,BlinkMacSystemFont,Segoe UI,Helvetica,Arial,sans-serif" font-size="48" font-weight="700" letter-spacing="-1" fill="#FFFFFF">one<tspan fill="#95AB9B">3</tspan>seven</text>
<text x="252" y="124" font-family="Georgia,Times New Roman,serif" font-size="25" fill="#95AB9B">Scattered records in. A clear timeline out.</text>
<text x="253" y="153" font-family="-apple-system,Segoe UI,Helvetica,Arial,sans-serif" font-size="14" letter-spacing="2.5" fill="#7C8B6F">EMPLOYMENT INTAKE · ORGANIZED · CALIFORNIA</text>
</svg>