<svg xmlns="http://www.w3.org/2000/svg" viewBox="0 0 1128 191" width="1128" height="191">
<defs><radialGradient id="glow" cx="50%" cy="50%" r="50%"><stop offset="0%" stop-color="#7C5CF0" stop-opacity="0.30"/><stop offset="100%" stop-color="#7C5CF0" stop-opacity="0"/></radialGradient></defs>
<rect width="1128" height="191" fill="#14112E"/>
<circle cx="120" cy="95" r="150" fill="url(#glow)"/>
<circle cx="120.00" cy="95.00" r="4.20" fill="#f2eeff"/><circle cx="113.83" cy="100.65" r="3.97" fill="#e4ddfd"/><circle cx="121.03" cy="83.21" r="3.88" fill="#ded5fc"/><circle cx="128.82" cy="106.50" r="3.81" fill="#dad0fc"/><circle cx="103.52" cy="92.09" r="3.75" fill="#d6cbfb"/><circle cx="135.79" cy="84.96" r="3.69" fill="#d2c7fb"/><circle cx="114.68" cy="114.79" r="3.65" fill="#cfc3fb"/><circle cx="109.80" cy="75.36" r="3.60" fill="#cdc0fa"/><circle cx="142.23" cy="103.12" r="3.56" fill="#cabdfa"/><circle cx="96.80" cy="104.58" r="3.52" fill="#c8bafa"/><circle cx="131.21" cy="71.04" r="3.49" fill="#c5b7f9"/><circle cx="128.30" cy="121.48" r="3.45" fill="#c3b4f9"/><circle cx="94.92" cy="80.47" r="3.42" fill="#c1b2f9"/><circle cx="149.46" cy="88.52" r="3.39" fill="#bfaff9"/><circle cx="102.00" cy="120.61" r="3.35" fill="#bdadf8"/><circle cx="115.84" cy="62.86" r="3.33" fill="#bbaaf8"/><circle cx="145.59" cy="116.57" r="3.30" fill="#baa8f8"/><circle cx="85.53" cy="96.43" r="3.27" fill="#b8a6f8"/><circle cx="145.16" cy="69.96" r="3.24" fill="#b6a4f7"/><circle cx="118.32" cy="131.43" r="3.22" fill="#b5a2f7"/><circle cx="96.03" cy="66.27" r="3.19" fill="#b3a0f7"/><circle cx="158.00" cy="100.11" r="3.16" fill="#b19ef7"/><circle cx="87.79" cy="117.41" r="3.14" fill="#b09cf7"/><circle cx="128.81" cy="55.85" r="3.12" fill="#ae9af6"/><circle cx="140.38" cy="130.56" r="3.09" fill="#ad99f6"/><circle cx="80.15" cy="82.29" r="3.07" fill="#ab97f6"/><circle cx="158.73" cy="77.11" r="3.05" fill="#aa95f6"/><circle cx="103.22" cy="135.10" r="3.03" fill="#a993f6"/><circle cx="105.02" cy="53.34" r="3.00" fill="#a792f6"/><circle cx="159.88" cy="115.96" r="2.98" fill="#a690f5"/><circle cx="75.69" cy="106.68" r="2.96" fill="#a58ef5"/><circle cx="145.19" cy="55.82" r="2.94" fill="#a38df5"/><circle cx="128.02" cy="141.64" r="2.92" fill="#a28bf5"/><circle cx="82.00" cy="65.57" r="2.90" fill="#a18af5"/><circle cx="168.62" cy="90.97" r="2.88" fill="#a088f5"/><circle cx="86.39" cy="131.33" r="2.86" fill="#9f87f4"/><circle cx="120.24" cy="44.80" r="2.84" fill="#9d85f4"/><circle cx="154.19" cy="132.69" r="2.83" fill="#9c84f4"/><circle cx="68.64" cy="90.24" r="2.81" fill="#9b82f4"/><circle cx="161.62" cy="63.41" r="2.79" fill="#9a81f4"/><circle cx="110.53" cy="147.06" r="2.77" fill="#9980f4"/><circle cx="91.47" cy="49.66" r="2.75" fill="#987ef4"/><circle cx="172.29" cy="109.33" r="2.74" fill="#977df3"/><circle cx="71.19" cy="120.05" r="2.72" fill="#967cf3"/><circle cx="139.29" cy="42.96" r="2.70" fill="#947af3"/><circle cx="141.16" cy="146.98" r="2.68" fill="#9379f3"/><circle cx="68.72" cy="70.70" r="2.67" fill="#9278f3"/><circle cx="174.81" cy="78.10" r="2.65" fill="#9176f3"/><circle cx="90.69" cy="145.01" r="2.63" fill="#9075f3"/><circle cx="107.70" cy="37.74" r="2.62" fill="#8f74f2"/><circle cx="168.23" cy="129.26" r="2.60" fill="#8e73f2"/><circle cx="60.71" cy="102.39" r="2.59" fill="#8d71f2"/><circle cx="159.11" cy="49.06" r="2.57" fill="#8c70f2"/><circle cx="122.22" cy="155.87" r="2.56" fill="#8b6ff2"/><circle cx="76.85" cy="51.21" r="2.54" fill="#8a6ef2"/><circle cx="181.97" cy="98.17" r="2.52" fill="#896df2"/><circle cx="71.73" cy="134.88" r="2.51" fill="#886bf2"/><circle cx="128.73" cy="32.44" r="2.49" fill="#886af1"/><circle cx="156.14" cy="147.48" r="2.48" fill="#8769f1"/><circle cx="57.37" cy="80.59" r="2.46" fill="#8668f1"/><circle cx="176.39" cy="63.05" r="2.45" fill="#8567f1"/><circle cx="99.84" cy="157.16" r="2.44" fill="#8466f1"/><circle cx="92.66" cy="35.06" r="2.42" fill="#8365f1"/><circle cx="181.13" cy="120.94" r="2.41" fill="#8263f1"/><circle cx="56.91" cy="117.35" r="2.39" fill="#8162f1"/><circle cx="151.67" cy="35.44" r="2.38" fill="#8061f1"/><circle cx="137.00" cy="160.81" r="2.36" fill="#7f60f0"/><circle cx="62.58" cy="57.68" r="2.35" fill="#7f5ff0"/><circle cx="188.05" cy="83.65" r="2.34" fill="#7e5ef0"/><circle cx="77.18" cy="149.74" r="2.32" fill="#7d5df0"/>
<text x="250" y="86" font-family="-apple-system,BlinkMacSystemFont,Segoe UI,Helvetica,Arial,sans-serif" font-size="48" font-weight="700" letter-spacing="-1" fill="#FFFFFF">one<tspan fill="#C4B5FD">3</tspan>seven</text>
<text x="252" y="124" font-family="Georgia,Times New Roman,serif" font-size="25" fill="#C9C4E6">Scattered records in. A clear timeline out.</text>
<text x="253" y="153" font-family="-apple-system,Segoe UI,Helvetica,Arial,sans-serif" font-size="14" letter-spacing="2.5" fill="#8E88B5">EMPLOYMENT INTAKE · ORGANIZED · CALIFORNIA</text>
</svg>